# xmcd
#
# Track frame offsets: 
#        150
#        13700
#        29831
#        45582
#        63034
#        73234
#        90271
#        104652
#        120054
#        135757
#
# Disc length: 2036 seconds
#
# Revision: 0
# Processed by: cddbd v1.5.2PL0 Copyright (c) Steve Scherf et al.
# Submitted via: ExactAudioCopy v1.3
#
DISCID=7807f20a
DTITLE=S. Mathias - The Memphis and London Sessions
DYEAR=2019
DGENRE=Blues
TTITLE0=Lyla
TTITLE1=Mystery Train
TTITLE2=If You're Gon' Go
TTITLE3=It Hurts Me Too
TTITLE4=Barrel of a Shotgun
TTITLE5=Sundress
TTITLE6=When They Come
TTITLE7=Teardrops in My Whiskey
TTITLE8=Oh! My Love
TTITLE9=This Old Dog
EXTD=
EXTT0=
EXTT1=
EXTT2=
EXTT3=
EXTT4=
EXTT5=
EXTT6=
EXTT7=
EXTT8=
EXTT9=
PLAYORDER=
